<svg width="25" height="26" viewBox="0 0 25 26" fill="none" xmlns="http://www.w3.org/2000/svg">
<path d="M22.875 13.8252C22.6746 13.5971 22.5641 13.3039 22.5641 13.0002C22.5641 12.6966 22.6746 12.4033 22.875 12.1752L24.475 10.3752C24.6513 10.1786 24.7608 9.93111 24.7877 9.66837C24.8147 9.40562 24.7577 9.14109 24.625 8.91273L22.125 4.58774C21.9936 4.35964 21.7936 4.17883 21.5534 4.07109C21.3133 3.96335 21.0452 3.93418 20.7875 3.98774L18.4375 4.46274C18.1385 4.52452 17.8272 4.47472 17.5624 4.32274C17.2975 4.17075 17.0975 3.92709 17 3.63774L16.2375 1.35024C16.1536 1.10196 15.9939 0.886316 15.7808 0.733788C15.5677 0.581259 15.312 0.499559 15.05 0.500235H10.05C9.77741 0.486008 9.50766 0.561393 9.28195 0.714878C9.05624 0.868362 8.88697 1.09151 8.79999 1.35024L8.09999 3.63774C8.00249 3.92709 7.80246 4.17075 7.53763 4.32274C7.27281 4.47472 6.96151 4.52452 6.66249 4.46274L4.24999 3.98774C4.00568 3.95321 3.75662 3.99176 3.53418 4.09853C3.31174 4.20531 3.12587 4.37552 2.99999 4.58774L0.499992 8.91273C0.363942 9.13855 0.30277 9.40159 0.325221 9.66426C0.347671 9.92694 0.452595 10.1758 0.624992 10.3752L2.21249 12.1752C2.41289 12.4033 2.52341 12.6966 2.52341 13.0002C2.52341 13.3039 2.41289 13.5971 2.21249 13.8252L0.624992 15.6252C0.452595 15.8247 0.347671 16.0735 0.325221 16.3362C0.30277 16.5989 0.363942 16.8619 0.499992 17.0877L2.99999 21.4127C3.13136 21.6408 3.33139 21.8216 3.57156 21.9294C3.81172 22.0371 4.07977 22.0663 4.33749 22.0127L6.68749 21.5377C6.98651 21.476 7.29781 21.5257 7.56263 21.6777C7.82746 21.8297 8.02749 22.0734 8.12499 22.3627L8.88749 24.6502C8.97447 24.909 9.14374 25.1321 9.36945 25.2856C9.59516 25.4391 9.86491 25.5145 10.1375 25.5002H15.1375C15.3995 25.5009 15.6552 25.4192 15.8683 25.2667C16.0814 25.1142 16.2411 24.8985 16.325 24.6502L17.0875 22.3627C17.185 22.0734 17.385 21.8297 17.6499 21.6777C17.9147 21.5257 18.226 21.476 18.525 21.5377L20.875 22.0127C21.1327 22.0663 21.4008 22.0371 21.6409 21.9294C21.8811 21.8216 22.0811 21.6408 22.2125 21.4127L24.7125 17.0877C24.8452 16.8594 24.9022 16.5948 24.8752 16.3321C24.8483 16.0694 24.7388 15.8219 24.5625 15.6252L22.875 13.8252ZM21.0125 15.5002L22.0125 16.6252L20.4125 19.4002L18.9375 19.1002C18.0372 18.9162 17.1007 19.0691 16.3057 19.53C15.5108 19.9908 14.9127 20.7275 14.625 21.6002L14.15 23.0002H10.95L10.5 21.5752C10.2123 20.7025 9.61422 19.9658 8.81925 19.505C8.02428 19.0441 7.08777 18.8912 6.18749 19.0752L4.71249 19.3752L3.08749 16.6127L4.08749 15.4877C4.70244 14.8002 5.04241 13.9102 5.04241 12.9877C5.04241 12.0653 4.70244 11.1753 4.08749 10.4877L3.08749 9.36274L4.68749 6.61273L6.16249 6.91273C7.06277 7.09676 7.99928 6.94384 8.79425 6.48298C9.58922 6.02213 10.1873 5.28543 10.475 4.41274L10.95 3.00024H14.15L14.625 4.42523C14.9127 5.29793 15.5108 6.03463 16.3057 6.49548C17.1007 6.95634 18.0372 7.10926 18.9375 6.92523L20.4125 6.62524L22.0125 9.40024L21.0125 10.5252C20.4044 11.2112 20.0687 12.0961 20.0687 13.0127C20.0687 13.9294 20.4044 14.8143 21.0125 15.5002ZM12.55 8.00024C11.5611 8.00024 10.5944 8.29348 9.77214 8.84289C8.94989 9.39229 8.30903 10.1732 7.93059 11.0868C7.55216 12.0004 7.45314 13.0058 7.64607 13.9757C7.83899 14.9456 8.3152 15.8365 9.01446 16.5358C9.71372 17.235 10.6046 17.7112 11.5745 17.9042C12.5444 18.0971 13.5498 17.9981 14.4634 17.6196C15.377 17.2412 16.1579 16.6003 16.7073 15.7781C17.2567 14.9558 17.55 13.9891 17.55 13.0002C17.55 11.6742 17.0232 10.4024 16.0855 9.4647C15.1478 8.52702 13.8761 8.00024 12.55 8.00024ZM12.55 15.5002C12.0555 15.5002 11.5722 15.3536 11.1611 15.0789C10.7499 14.8042 10.4295 14.4138 10.2403 13.9569C10.0511 13.5001 10.0016 12.9975 10.098 12.5125C10.1945 12.0276 10.4326 11.5821 10.7822 11.2325C11.1319 10.8828 11.5773 10.6447 12.0623 10.5483C12.5472 10.4518 13.0499 10.5013 13.5067 10.6905C13.9635 10.8798 14.354 11.2002 14.6287 11.6113C14.9034 12.0224 15.05 12.5058 15.05 13.0002C15.05 13.6633 14.7866 14.2992 14.3178 14.768C13.8489 15.2368 13.213 15.5002 12.55 15.5002Z" fill="#1A1A1A"/>
</svg>
