<svg width="28" height="20" viewBox="0 0 28 20" fill="none" xmlns="http://www.w3.org/2000/svg">
<path d="M22.75 12.5V2.5C22.75 1.125 21.625 0 20.25 0H2.75C1.375 0 0.25 1.125 0.25 2.5V12.5C0.25 13.875 1.375 15 2.75 15H20.25C21.625 15 22.75 13.875 22.75 12.5ZM20.25 12.5H2.75V2.5H20.25V12.5ZM11.5 3.75C9.425 3.75 7.75 5.425 7.75 7.5C7.75 9.575 9.425 11.25 11.5 11.25C13.575 11.25 15.25 9.575 15.25 7.5C15.25 5.425 13.575 3.75 11.5 3.75ZM27.75 3.75V17.5C27.75 18.875 26.625 20 25.25 20H4V17.5H25.25V3.75H27.75Z" fill="#1A1A1A"/>
</svg>
