<svg width="12" height="23" viewBox="0 0 12 23" fill="none" xmlns="http://www.w3.org/2000/svg">
<path d="M10.3636 4.90906V16.909C10.3636 19.3092 8.40022 21.2726 6 21.2726C3.59983 21.2726 1.63641 19.3092 1.63641 16.909V4.36365C1.63641 2.83647 2.83647 1.63635 4.36365 1.63635C5.89077 1.63635 7.09089 2.83647 7.09089 4.36365V16.909C7.09089 17.5088 6.59972 17.9999 5.99995 17.9999C5.40017 17.9999 4.90906 17.5088 4.90906 16.909V6.54542H3.27271V16.909C3.27276 18.4361 4.47282 19.6362 6 19.6362C7.52718 19.6362 8.72729 18.4361 8.72729 16.909V4.36365C8.72729 1.96368 6.76387 0 4.36365 0C1.96342 0 0 1.96368 0 4.36365V16.909C5.11361e-05 20.236 2.67299 22.909 6 22.909C9.32701 22.909 12 20.236 12 16.909V4.90906H10.3636Z" fill="white"/>
</svg>
