   <svg width="20" height="20" viewBox="0 0 20 20" fill="none" xmlns="http://www.w3.org/2000/svg">
<path d="M10.9952 16.0738C11.1513 16.23 11.239 16.4417 11.239 16.6625C11.239 16.8834 11.1513 17.0951 10.9952 17.2513L9.9601 18.2925C8.86543 19.3863 7.38102 20.0005 5.83341 20C4.28581 19.9995 2.80178 19.3844 1.70781 18.2899C0.613828 17.1954 -0.000487932 15.7113 2.90786e-07 14.164C0.000488514 12.6166 0.615741 11.1329 1.71041 10.0391L4.22218 7.5278C5.27363 6.4757 6.68748 5.86511 8.17439 5.82098C9.66131 5.77685 11.1089 6.30252 12.2209 7.29041C12.303 7.36315 12.3699 7.45133 12.4178 7.54993C12.4658 7.64853 12.4939 7.75561 12.5005 7.86505C12.507 7.97449 12.492 8.08416 12.4562 8.18779C12.4204 8.29142 12.3645 8.38698 12.2917 8.46902C12.219 8.55106 12.1308 8.61796 12.0321 8.66592C11.9335 8.71388 11.8264 8.74194 11.717 8.74852C11.6075 8.75509 11.4978 8.74004 11.3942 8.70424C11.2905 8.66843 11.1949 8.61256 11.1129 8.53982C10.3187 7.83463 9.28498 7.45946 8.22325 7.491C7.16152 7.52255 6.15195 7.95844 5.40101 8.70953L2.88923 11.2177C2.1079 11.9989 1.66895 13.0584 1.66895 14.1632C1.66895 15.268 2.1079 16.3275 2.88923 17.1087C3.67057 17.8899 4.73028 18.3288 5.83526 18.3288C6.94023 18.3288 7.99994 17.8899 8.78128 17.1087L9.81639 16.0738C9.89377 15.9963 9.98565 15.9349 10.0868 15.893C10.1879 15.851 10.2963 15.8295 10.4058 15.8295C10.5153 15.8295 10.6237 15.851 10.7248 15.893C10.826 15.9349 10.9178 15.9963 10.9952 16.0738ZM18.2931 1.70554C17.1983 0.613371 15.7148 0 14.1683 0C12.6217 0 11.1382 0.613371 10.0434 1.70554L9.00829 2.74151C8.85211 2.89781 8.76442 3.10973 8.76452 3.33067C8.76462 3.5516 8.85249 3.76345 9.00882 3.9196C9.16514 4.07576 9.3771 4.16343 9.59808 4.16333C9.81905 4.16324 10.0309 4.07538 10.1871 3.91908L11.2222 2.88415C12.0036 2.10296 13.0633 1.66409 14.1683 1.6641C15.2732 1.6641 16.3329 2.10296 17.1143 2.88415C17.8956 3.66535 18.3346 4.72487 18.3346 5.82964C18.3346 6.93441 17.8956 7.99393 17.1143 8.77512L14.6025 11.2885C13.8512 12.0392 12.8414 12.4745 11.7796 12.5055C10.7179 12.5364 9.68446 12.1607 8.89062 11.4551C8.72491 11.3082 8.50762 11.2331 8.28654 11.2464C8.06547 11.2597 7.85873 11.3602 7.7118 11.5259C7.56486 11.6916 7.48978 11.9088 7.50306 12.1299C7.51634 12.3509 7.6169 12.5576 7.78261 12.7045C8.89437 13.6927 10.3418 14.2187 11.8287 14.175C13.3156 14.1312 14.7296 13.521 15.7813 12.4692L18.2931 9.9579C19.3861 8.86319 20 7.37958 20 5.83276C20 4.28595 19.3861 2.80234 18.2931 1.70763V1.70554Z" fill="#808080"/>
</svg>